<?xml version="1.0" encoding="UTF-8" standalone="no"?>
<!-- Created with Inkscape (http://www.inkscape.org/) -->

<svg
   version="1.1"
   id="svg1"
   width="163.84"
   height="163.84"
   viewBox="0 0 163.84 163.84"
   sodipodi:docname="moon.svg"
   inkscape:version="1.4.2 (f4327f4, 2025-05-13)"
   xmlns:inkscape="http://www.inkscape.org/namespaces/inkscape"
   xmlns:sodipodi="http://sodipodi.sourceforge.net/DTD/sodipodi-0.dtd"
   xmlns="http://www.w3.org/2000/svg"
   xmlns:svg="http://www.w3.org/2000/svg">
  <defs
     id="defs1" />
  <sodipodi:namedview
     id="namedview1"
     pagecolor="#ffffff"
     bordercolor="#000000"
     borderopacity="0.25"
     inkscape:showpageshadow="2"
     inkscape:pageopacity="0.0"
     inkscape:pagecheckerboard="0"
     inkscape:deskcolor="#d1d1d1"
     inkscape:zoom="4.7790528"
     inkscape:cx="81.815375"
     inkscape:cy="81.919998"
     inkscape:window-width="1920"
     inkscape:window-height="1001"
     inkscape:window-x="1911"
     inkscape:window-y="-9"
     inkscape:window-maximized="1"
     inkscape:current-layer="g1" />
  <g
     inkscape:groupmode="layer"
     inkscape:label="Image"
     id="g1">
    <path
       style="fill:#000000"
       d="M 75.359998,137.87458 C 66.852848,136.93843 56.91669,133.06878 49.207407,127.6894 45.401109,125.03345 38.849955,118.48148 36.079639,114.56 33.44571,110.83158 29.800821,103.60566 28.493179,99.519998 23.863866,85.055938 24.931173,70.115312 31.536646,56.91623 36.981247,46.036807 45.439395,37.494271 56.346897,31.858443 c 8.279061,-4.277732 18.444214,-6.577579 27.337724,-6.185111 4.609331,0.203408 5.580878,0.679109 5.590477,2.737277 0.0042,0.891024 -0.455598,1.537114 -3.026732,4.253453 -8.054739,8.509632 -11.76452,17.577305 -11.77286,28.775937 -0.0052,6.9258 1.201663,12.204538 4.121597,18.028225 4.924611,9.821933 13.605542,17.405969 23.834517,20.822866 3.79642,1.26816 7.9365,1.86919 12.92838,1.87685 4.9712,0.008 8.0875,-0.47462 12.96,-2.0056 3.70886,-1.165363 4.47451,-1.190054 5.42806,-0.175053 0.99273,1.056723 0.78778,2.420043 -0.89188,5.932713 -3.73494,7.81084 -9.57967,15.12925 -16.21618,20.30493 -11.58795,9.03718 -26.577887,13.2675 -41.280002,11.64965 z m 16.8,-5.87658 c 11.125172,-2.4193 22.168292,-9.09309 29.119432,-17.598 2.0045,-2.45257 5.58767,-7.79957 5.37153,-8.01571 -0.0746,-0.0745 -1.27751,0.10029 -2.67325,0.38852 -3.66959,0.75779 -14.07051,0.74168 -17.56839,-0.0272 C 87.482859,102.58522 73.838878,88.878656 69.871236,70.039918 69.070485,66.237877 69.066762,56.584287 69.864602,52.84008 71.293123,46.136128 74.522423,38.812603 78.264866,33.78965 l 2.123705,-2.850349 -3.154286,0.211395 c -8.357448,0.560102 -17.391208,3.906586 -24.904105,9.225527 -3.245364,2.297635 -8.560902,7.41451 -10.909433,10.501702 -2.179212,2.864619 -5.504143,8.465042 -5.966753,10.050236 -0.21056,0.721511 -0.479573,1.383838 -0.597806,1.471838 -0.374564,0.278785 -1.912228,4.839962 -2.750899,8.159999 -0.679612,2.690374 -0.835069,4.19542 -0.976135,9.450345 -0.196563,7.322306 0.11944,10.279653 1.676436,15.689079 5.463729,18.982468 20.808058,32.868288 40.474408,36.627218 3.285729,0.62801 15.45488,0.41619 18.88,-0.32864 z"
       id="path1" />
  </g>
</svg>
