<?xml version="1.0" encoding="UTF-8" standalone="no"?>
<!-- Created with Inkscape (http://www.inkscape.org/) -->

<svg
   version="1.1"
   id="svg1"
   width="512"
   height="512"
   viewBox="0 0 512 512"
   sodipodi:docname="sun.svg"
   inkscape:version="1.4.2 (f4327f4, 2025-05-13)"
   xmlns:inkscape="http://www.inkscape.org/namespaces/inkscape"
   xmlns:sodipodi="http://sodipodi.sourceforge.net/DTD/sodipodi-0.dtd"
   xmlns="http://www.w3.org/2000/svg"
   xmlns:svg="http://www.w3.org/2000/svg">
  <defs
     id="defs1" />
  <sodipodi:namedview
     id="namedview1"
     pagecolor="#ffffff"
     bordercolor="#000000"
     borderopacity="0.25"
     inkscape:showpageshadow="2"
     inkscape:pageopacity="0.0"
     inkscape:pagecheckerboard="0"
     inkscape:deskcolor="#d1d1d1"
     inkscape:zoom="1.3730469"
     inkscape:cx="255.63585"
     inkscape:cy="256"
     inkscape:window-width="1600"
     inkscape:window-height="921"
     inkscape:window-x="-9"
     inkscape:window-y="-9"
     inkscape:window-maximized="1"
     inkscape:current-layer="g1" />
  <g
     inkscape:groupmode="layer"
     inkscape:label="Image"
     id="g1">
    <path
       style="fill:#000000"
       d="m 250.87468,477.8435 c -2.11846,-2.55258 -32.95408,-80.68321 -32.40637,-82.11053 0.89882,-2.34229 3.57045,-2.52915 13.90033,-0.97221 5.47054,0.82452 15.12144,1.49914 21.44644,1.49914 6.325,0 15.9759,-0.67462 21.44644,-1.49914 10.67824,-1.60945 13.13859,-1.37189 14.00313,1.35205 0.53098,1.67296 -30.29574,79.06368 -32.59815,81.83791 -1.44073,1.73597 -4.30613,1.68293 -5.79182,-0.10722 z m -155.180762,-64.46883 -2.24594,-1.81866 16.809412,-39.89216 c 9.24517,-21.94069 17.51378,-40.45466 18.37468,-41.14216 2.76343,-2.20683 3.99555,-1.39702 9.78458,6.4309 8.13732,11.00329 21.43734,24.45055 32.14843,32.5043 5.0875,3.82534 9.25,7.51257 9.25,8.19385 0,0.68128 -0.5625,1.94106 -1.25,2.79951 -0.6875,0.85845 -16.79115,8.11305 -35.7859,16.12133 -48.612202,20.49515 -44.387582,18.98753 -47.085262,16.80309 z m 311.121162,0.72841 c -13.14236,-4.9009 -76.79025,-32.44592 -77.75,-33.64802 -2.20675,-2.76396 -1.39712,-3.99584 6.4309,-9.78494 11.00329,-8.13732 24.45055,-21.43734 32.5043,-32.14843 3.82534,-5.0875 7.51257,-9.25 8.19385,-9.25 0.68128,0 1.94306,0.5625 2.80396,1.25 2.10176,1.67842 35.18907,80.33894 34.35856,81.68273 -1.26033,2.03926 -4.0181,2.83969 -6.54157,1.89866 z M 238.00427,368.19883 c -23.17993,-3.00914 -47.3006,-15.12426 -64.64633,-32.47 -44.53471,-44.5347 -44.53471,-116.37958 0,-160.91428 44.5347,-44.53471 116.37958,-44.53471 160.91428,0 44.53471,44.5347 44.53471,116.37958 0,160.91428 -25.27182,25.27182 -60.41313,37.12456 -96.26795,32.47 z M 70.906378,274.91813 c -22.71472,-9.30662 -39.86882,-16.88776 -40.49488,-17.89644 -0.77522,-1.24898 -0.77886,-2.25102 -0.0127,-3.5 1.30093,-2.12085 80.928232,-34.37453 82.948902,-33.59912 2.34878,0.90131 2.5363,3.56607 0.97834,13.90268 -1.92998,12.80496 -1.91851,29.94488 0.0288,43.05954 1.63627,11.01972 1.07166,14.48847 -2.32494,14.28334 -0.94315,-0.057 -19.448732,-7.36946 -41.123522,-16.25 z m 322.480132,14.78213 c -1.90233,-1.90233 -1.89664,-0.94515 -0.0773,-13.0157 1.90929,-12.66745 1.90723,-30.17191 -0.005,-42.85931 -1.55796,-10.33661 -1.37044,-13.00137 0.97834,-13.90268 2.02067,-0.77541 81.64797,31.47827 82.94891,33.59912 0.76622,1.24914 0.76234,2.25086 -0.0136,3.5 -0.87788,1.41329 -79.02151,34.21254 -81.58131,34.24215 -0.37322,0.004 -1.38572,-0.69929 -2.25,-1.56358 z M 128.63207,180.02169 c -0.8609,-0.6875 -9.11567,-19.16874 -18.34393,-41.06943 l -16.778652,-39.819422 2.08337,-2.08337 2.08337,-2.08336 39.819422,16.778642 c 21.90069,9.22826 40.38193,17.48303 41.06943,18.34393 0.6875,0.8609 1.25,2.12268 1.25,2.80396 0,0.68128 -4.1625,4.36851 -9.25,8.19385 -10.71109,8.05375 -24.01111,21.50101 -32.14843,32.5043 -5.78903,7.82792 -7.02115,8.63773 -9.78458,6.4309 z m 239.36821,-8 c -8.05375,-10.71109 -21.50101,-24.01111 -32.5043,-32.14843 -7.82792,-5.78903 -8.63773,-7.02115 -6.4309,-9.78458 0.6875,-0.8609 19.16874,-9.11567 41.06943,-18.34393 l 39.81943,-16.778642 2.08336,2.08336 2.08337,2.08337 -16.77865,39.819422 c -9.22826,21.90069 -17.48303,40.38193 -18.34393,41.06943 -0.8609,0.6875 -2.12268,1.25 -2.80396,1.25 -0.68128,0 -4.36851,-4.1625 -8.19385,-9.25 z M 219.38651,115.70026 c -0.86429,-0.86428 -1.53184,-1.87678 -1.48345,-2.25 0.0484,-0.37321 7.36089,-18.643482 16.25,-40.600612 9.46536,-23.38052 16.88712,-40.366565 17.91202,-40.994881 1.24902,-0.765715 2.25098,-0.761103 3.5,0.01611 2.30522,1.434445 34.4606,80.161923 33.70877,82.530723 -0.87427,2.7546 -3.30778,2.99444 -14.01233,1.38103 -12.6874,-1.91226 -30.19186,-1.91432 -42.85931,-0.005 -12.07055,1.81931 -11.11337,1.825 -13.0157,-0.0773 z"
       id="path1" />
  </g>
</svg>
